<svg xmlns="http://www.w3.org/2000/svg" xmlns:xlink="http://www.w3.org/1999/xlink" width="500" zoomAndPan="magnify" viewBox="0 0 375 374.999991" height="500" preserveAspectRatio="xMidYMid meet" version="1.0"><defs><g/><clipPath id="b89bab5697"><path d="M 129.519531 79.128906 L 245.769531 79.128906 L 245.769531 223.128906 L 129.519531 223.128906 Z M 129.519531 79.128906 " clip-rule="nonzero"/></clipPath></defs><rect x="-37.5" width="450" fill="#ffffff" y="-37.499999" height="449.999989" fill-opacity="1"/><rect x="-37.5" width="450" fill="#253439" y="-37.499999" height="449.999989" fill-opacity="1"/><path fill="#7c898b" d="M 175.90625 154.804688 L 187.5 132.34375 L 187.5 166.300781 Z M 175.90625 154.804688 " fill-opacity="1" fill-rule="evenodd"/><path fill="#ffffff" d="M 199.089844 154.804688 L 187.496094 132.34375 L 187.496094 166.300781 Z M 199.089844 154.804688 " fill-opacity="1" fill-rule="evenodd"/><path fill="#7c898b" d="M 199.089844 177.796875 L 187.496094 200.257812 L 187.496094 166.300781 Z M 199.089844 177.796875 " fill-opacity="1" fill-rule="evenodd"/><path fill="#ffffff" d="M 175.90625 177.796875 L 187.5 200.257812 L 187.5 166.300781 Z M 175.90625 177.796875 " fill-opacity="1" fill-rule="evenodd"/><path fill="#7c898b" d="M 198.992188 154.710938 L 221.457031 166.304688 L 187.5 166.304688 Z M 198.992188 154.710938 " fill-opacity="1" fill-rule="evenodd"/><path fill="#ffffff" d="M 198.992188 177.890625 L 221.457031 166.300781 L 187.5 166.300781 Z M 198.992188 177.890625 " fill-opacity="1" fill-rule="evenodd"/><path fill="#7c898b" d="M 176.003906 177.890625 L 153.542969 166.300781 L 187.5 166.300781 Z M 176.003906 177.890625 " fill-opacity="1" fill-rule="evenodd"/><path fill="#ffffff" d="M 176.003906 154.710938 L 153.542969 166.304688 L 187.5 166.304688 Z M 176.003906 154.710938 " fill-opacity="1" fill-rule="evenodd"/><path fill="#7c898b" d="M 215.542969 138.292969 L 215.660156 138.175781 L 215.582031 138.214844 L 215.621094 138.140625 L 215.503906 138.257812 L 199.089844 146.960938 L 202.980469 150.851562 L 206.835938 154.710938 Z M 215.542969 138.292969 " fill-opacity="1" fill-rule="evenodd"/><path fill="#7c898b" d="M 158.480469 194.308594 L 158.363281 194.425781 L 158.441406 194.386719 L 158.398438 194.460938 L 158.519531 194.34375 L 174.933594 185.640625 L 171.078125 181.785156 L 171.039062 181.75 L 167.183594 177.890625 Z M 158.480469 194.308594 " fill-opacity="1" fill-rule="evenodd"/><path fill="#7c898b" d="M 215.019531 194.832031 L 215.136719 194.949219 L 215.09375 194.871094 L 215.171875 194.914062 L 215.054688 194.792969 L 206.351562 178.378906 L 202.496094 182.234375 L 202.457031 182.269531 L 198.601562 186.128906 Z M 215.019531 194.832031 " fill-opacity="1" fill-rule="evenodd"/><path fill="#7c898b" d="M 159.003906 137.769531 L 158.886719 137.652344 L 158.925781 137.730469 L 158.851562 137.691406 L 158.96875 137.808594 L 167.671875 154.222656 L 171.5625 150.332031 L 175.417969 146.472656 Z M 159.003906 137.769531 " fill-opacity="1" fill-rule="evenodd"/><g clip-path="url(#b89bab5697)"><path fill="#ffffff" d="M 204.019531 213.621094 C 199.933594 215.050781 195.734375 215.898438 191.519531 216.210938 L 187.320312 209.578125 L 183.167969 216.132812 C 169.082031 214.832031 155.65625 207.691406 146.855469 196.175781 C 140.757812 188.195312 137.445312 178.804688 136.789062 169.234375 L 143.023438 165.285156 L 136.84375 161.371094 C 137.566406 152.667969 140.457031 144.09375 145.445312 136.574219 C 154.054688 123.59375 168.347656 115.988281 183.359375 114.738281 L 187.320312 120.988281 L 191.320312 114.667969 C 194.792969 114.902344 198.253906 115.476562 201.648438 116.40625 C 222.046875 122.015625 236.265625 140.5 238.234375 161.089844 L 231.613281 165.285156 L 238.257812 169.492188 C 236.449219 189.503906 223.269531 206.867188 204.023438 213.621094 Z M 176.890625 97.261719 C 176.890625 91.40625 181.640625 86.652344 187.5 86.652344 C 193.355469 86.652344 198.105469 91.40625 198.105469 97.261719 C 198.105469 102.1875 194.746094 106.332031 190.191406 107.523438 L 190.367188 107.53125 C 188.472656 107.449219 186.578125 107.460938 184.683594 107.566406 L 184.921875 107.550781 C 180.308594 106.398438 176.890625 102.230469 176.890625 97.261719 Z M 190.378906 107.53125 C 190.691406 107.542969 191 107.5625 191.308594 107.578125 C 191 107.558594 190.691406 107.542969 190.378906 107.53125 Z M 191.34375 107.582031 C 191.65625 107.597656 191.964844 107.621094 192.277344 107.644531 Z M 192.289062 107.644531 C 192.597656 107.667969 192.902344 107.691406 193.210938 107.71875 C 192.902344 107.691406 192.597656 107.667969 192.289062 107.644531 Z M 193.246094 107.722656 C 193.550781 107.75 193.851562 107.78125 194.152344 107.8125 C 193.851562 107.78125 193.546875 107.75 193.246094 107.722656 Z M 194.203125 107.816406 C 194.507812 107.851562 194.8125 107.886719 195.117188 107.925781 C 194.8125 107.886719 194.507812 107.851562 194.203125 107.816406 Z M 195.125 107.925781 C 195.4375 107.964844 195.75 108.003906 196.058594 108.050781 C 195.75 108.003906 195.4375 107.964844 195.125 107.925781 Z M 196.070312 108.050781 C 196.375 108.09375 196.675781 108.140625 196.976562 108.1875 C 196.675781 108.140625 196.371094 108.09375 196.070312 108.050781 Z M 197.023438 108.195312 C 197.320312 108.242188 197.617188 108.289062 197.917969 108.34375 C 197.617188 108.289062 197.320312 108.238281 197.023438 108.195312 Z M 197.976562 108.351562 C 198.277344 108.40625 198.574219 108.460938 198.875 108.519531 C 198.574219 108.460938 198.277344 108.40625 197.976562 108.351562 Z M 198.894531 108.523438 C 199.199219 108.582031 199.5 108.640625 199.800781 108.703125 C 199.5 108.640625 199.199219 108.582031 198.894531 108.523438 Z M 199.84375 108.714844 C 200.140625 108.773438 200.433594 108.839844 200.726562 108.90625 C 200.433594 108.839844 200.140625 108.773438 199.84375 108.714844 Z M 200.78125 108.917969 L 201.269531 109.035156 C 203.980469 105.867188 205.617188 101.753906 205.617188 97.261719 C 205.617188 87.257812 197.503906 79.144531 187.496094 79.144531 C 177.492188 79.144531 169.378906 87.257812 169.378906 97.261719 C 169.378906 101.8125 171.054688 105.972656 173.828125 109.152344 L 174.242188 109.054688 C 168.664062 110.355469 163.253906 112.457031 158.234375 115.324219 C 140.414062 125.496094 129.761719 145.085938 129.519531 165.382812 C 129.28125 185.894531 140.84375 204.996094 158.234375 215.445312 C 176.066406 226.160156 198.890625 225.644531 216.761719 215.445312 C 234.582031 205.273438 245.234375 185.683594 245.476562 165.382812 C 245.234375 144.734375 234.460938 125.957031 216.761719 115.324219 C 211.753906 112.3125 206.355469 110.191406 200.78125 108.921875 Z M 174.289062 109.042969 C 174.589844 108.972656 174.886719 108.90625 175.1875 108.84375 C 174.886719 108.90625 174.589844 108.976562 174.289062 109.042969 Z M 175.214844 108.835938 C 175.511719 108.769531 175.808594 108.710938 176.109375 108.648438 C 175.8125 108.710938 175.511719 108.769531 175.214844 108.835938 Z M 176.160156 108.636719 C 176.460938 108.578125 176.761719 108.519531 177.0625 108.464844 C 176.761719 108.519531 176.460938 108.578125 176.160156 108.636719 Z M 177.089844 108.460938 C 177.394531 108.40625 177.703125 108.351562 178.007812 108.296875 C 177.703125 108.351562 177.394531 108.402344 177.089844 108.460938 Z M 178.027344 108.296875 C 178.335938 108.246094 178.644531 108.195312 178.957031 108.148438 C 178.644531 108.195312 178.335938 108.246094 178.027344 108.296875 Z M 178.964844 108.148438 C 179.582031 108.054688 180.199219 107.972656 180.820312 107.898438 C 180.199219 107.972656 179.582031 108.058594 178.964844 108.148438 Z M 180.875 107.890625 C 181.171875 107.855469 181.472656 107.824219 181.777344 107.792969 C 181.476562 107.824219 181.171875 107.855469 180.875 107.890625 Z M 181.808594 107.789062 C 182.113281 107.757812 182.414062 107.726562 182.71875 107.703125 C 182.414062 107.730469 182.113281 107.757812 181.808594 107.789062 Z M 182.792969 107.695312 C 183.09375 107.671875 183.394531 107.648438 183.695312 107.625 C 183.394531 107.644531 183.09375 107.667969 182.792969 107.695312 Z M 183.707031 107.625 C 184.011719 107.605469 184.320312 107.585938 184.625 107.566406 C 184.320312 107.585938 184.011719 107.605469 183.707031 107.625 Z M 183.707031 107.625 " fill-opacity="1" fill-rule="evenodd"/></g><g fill="#f6f4f1" fill-opacity="1"><g transform="translate(89.819318, 264.792259)"><g><path d="M 18.589844 0 L 25.722656 0 L 25.722656 -8.917969 L 27.152344 -8.917969 L 27.152344 -12.738281 L 15.304688 -12.738281 L 15.304688 -8.917969 L 17.480469 -8.917969 L 17.480469 -7.421875 C 16.945312 -6.492188 16.089844 -5.671875 14.058594 -5.671875 C 10.953125 -5.671875 9.167969 -8.597656 9.167969 -12.238281 C 9.167969 -15.804688 11.167969 -18.945312 14.058594 -18.945312 C 16.160156 -18.945312 18.015625 -17.304688 18.125 -14.414062 L 24.511719 -14.414062 L 24.511719 -24.9375 L 19.195312 -24.9375 L 18.445312 -22.371094 C 17.875 -22.941406 16.660156 -25.367188 11.488281 -25.367188 C 5.921875 -25.367188 0.535156 -20.015625 0.535156 -12.238281 C 0.535156 -4.53125 5.496094 0.320312 11.738281 0.320312 C 14.484375 0.320312 16.695312 -0.925781 17.480469 -2.246094 Z M 18.589844 0 "/></g></g></g><g fill="#f6f4f1" fill-opacity="1"><g transform="translate(117.500755, 264.792259)"><g><path d="M 13.308594 0.640625 C 21.371094 0.640625 25.867188 -4.28125 25.867188 -12.34375 C 25.867188 -20.371094 21.800781 -25.617188 13.058594 -25.617188 C 5.671875 -25.617188 0.535156 -20.300781 0.535156 -12.59375 C 0.535156 -3.675781 5.851562 0.640625 13.308594 0.640625 Z M 13.308594 -4.960938 C 11.023438 -4.960938 9.347656 -7.921875 9.347656 -12.59375 C 9.347656 -17.019531 10.847656 -20.15625 13.023438 -20.121094 C 15.769531 -20.121094 16.945312 -16.660156 16.945312 -12.34375 C 16.945312 -7.921875 15.554688 -4.960938 13.308594 -4.960938 Z M 13.308594 -4.960938 "/></g></g></g><g fill="#f6f4f1" fill-opacity="1"><g transform="translate(143.897993, 264.792259)"><g><path d="M 1.675781 -10.882812 L 1.675781 -6.136719 L 12.023438 -6.136719 L 12.023438 -10.882812 Z M 1.675781 -10.882812 "/></g></g></g><g fill="#f6f4f1" fill-opacity="1"><g transform="translate(157.667363, 264.792259)"><g><path d="M 0.890625 0 L 7.136719 0 L 7.527344 -2.746094 C 8.882812 -1.140625 11.382812 0.535156 14.984375 0.535156 C 19.230469 0.535156 24.4375 -1.460938 24.4375 -7.027344 C 24.4375 -15.414062 10.3125 -14.554688 10.3125 -18.230469 C 10.3125 -19.480469 11.738281 -20.121094 12.773438 -20.121094 C 15.269531 -20.121094 17.339844 -18.625 17.339844 -15.984375 L 23.796875 -15.984375 L 23.796875 -24.9375 L 17.660156 -24.9375 L 17.304688 -21.941406 C 15.875 -24.617188 12.84375 -25.582031 9.847656 -25.582031 C 6.351562 -25.582031 1.355469 -23.191406 1.355469 -17.910156 C 1.355469 -8.8125 15.054688 -9.988281 15.054688 -7.207031 C 15.054688 -5.707031 13.273438 -5.421875 12.023438 -5.421875 C 10.523438 -5.496094 7.527344 -5.992188 7.527344 -8.992188 L 0.890625 -8.992188 Z M 0.890625 0 "/></g></g></g><g fill="#f6f4f1" fill-opacity="1"><g transform="translate(182.994441, 264.792259)"><g><path d="M 19.765625 -9.027344 C 19.445312 -8.667969 17.089844 -5.53125 14.09375 -5.53125 C 10.703125 -5.53125 8.882812 -8.707031 8.882812 -12.238281 C 8.882812 -16.125 10.558594 -19.300781 13.128906 -19.300781 C 15.664062 -19.300781 16.804688 -17.125 16.910156 -14.804688 L 23.296875 -14.804688 L 23.296875 -24.9375 L 17.695312 -24.9375 L 16.875 -22.941406 C 16.554688 -23.367188 14.949219 -25.367188 11.382812 -25.367188 C 6.707031 -25.367188 0.535156 -20.441406 0.535156 -12.238281 C 0.535156 -4.28125 5.566406 0.570312 13.128906 0.570312 C 17.804688 0.570312 21.511719 -1.785156 23.941406 -4.460938 Z M 19.765625 -9.027344 "/></g></g></g><g fill="#f6f4f1" fill-opacity="1"><g transform="translate(207.465398, 264.792259)"><g><path d="M 13.308594 0.640625 C 21.371094 0.640625 25.867188 -4.28125 25.867188 -12.34375 C 25.867188 -20.371094 21.800781 -25.617188 13.058594 -25.617188 C 5.671875 -25.617188 0.535156 -20.300781 0.535156 -12.59375 C 0.535156 -3.675781 5.851562 0.640625 13.308594 0.640625 Z M 13.308594 -4.960938 C 11.023438 -4.960938 9.347656 -7.921875 9.347656 -12.59375 C 9.347656 -17.019531 10.847656 -20.15625 13.023438 -20.121094 C 15.769531 -20.121094 16.945312 -16.660156 16.945312 -12.34375 C 16.945312 -7.921875 15.554688 -4.960938 13.308594 -4.960938 Z M 13.308594 -4.960938 "/></g></g></g><g fill="#f6f4f1" fill-opacity="1"><g transform="translate(233.862637, 264.792259)"><g><path d="M 0.535156 -24.9375 L 0.535156 -20.300781 L 2.53125 -20.300781 L 2.53125 -11.488281 C 2.53125 -3.390625 6.386719 0.390625 13.59375 0.605469 C 20.300781 0.605469 23.832031 -3.210938 23.832031 -11.667969 L 23.832031 -20.335938 L 25.757812 -20.335938 L 25.757812 -24.9375 L 15.199219 -24.9375 L 15.199219 -20.230469 L 17.125 -20.230469 L 17.125 -12.664062 C 17.125 -6.527344 15.699219 -5.671875 13.523438 -5.671875 C 11.238281 -5.671875 9.953125 -6.886719 9.953125 -12.628906 L 9.953125 -20.335938 L 11.878906 -20.335938 L 11.878906 -24.9375 Z M 0.535156 -24.9375 "/></g></g></g><g fill="#f6f4f1" fill-opacity="1"><g transform="translate(260.152861, 264.792259)"><g><path d="M 24.476562 -24.9375 L 0.535156 -24.9375 L 0.535156 -15.664062 L 5.78125 -15.664062 L 5.78125 -20.230469 L 8.847656 -20.230469 L 8.847656 -4.746094 L 5.921875 -4.746094 L 5.921875 0 L 19.195312 0 L 19.195312 -4.746094 L 16.234375 -4.746094 L 16.234375 -20.230469 L 19.230469 -20.230469 L 19.230469 -15.664062 L 24.476562 -15.664062 Z M 24.476562 -24.9375 "/></g></g></g><g fill="#7c898b" fill-opacity="1"><g transform="translate(95.956381, 291.157306)"><g><path d="M 0.75 -11.046875 L 7.65625 -11.046875 L 7.65625 -8.890625 L 3.109375 -8.890625 L 3.109375 -6.90625 L 7.109375 -6.90625 L 7.109375 -4.75 L 3.109375 -4.75 L 3.109375 -2.140625 L 7.65625 -2.140625 L 7.65625 0 L 0.75 0 Z M 0.75 -11.046875 "/></g></g></g><g fill="#7c898b" fill-opacity="1"><g transform="translate(109.059016, 291.157306)"><g><path d="M 9.65625 -11.046875 L 12.234375 -11.046875 L 7.578125 0 L 4.96875 0 L 0.328125 -11.046875 L 2.890625 -11.046875 L 6.28125 -2.78125 Z M 9.65625 -11.046875 "/></g></g></g><g fill="#7c898b" fill-opacity="1"><g transform="translate(126.319953, 291.157306)"><g><path d="M 0.75 -11.046875 L 7.65625 -11.046875 L 7.65625 -8.890625 L 3.109375 -8.890625 L 3.109375 -6.90625 L 7.109375 -6.90625 L 7.109375 -4.75 L 3.109375 -4.75 L 3.109375 -2.140625 L 7.65625 -2.140625 L 7.65625 0 L 0.75 0 Z M 0.75 -11.046875 "/></g></g></g><g fill="#7c898b" fill-opacity="1"><g transform="translate(139.422588, 291.157306)"><g><path d="M 8.28125 -11.046875 L 10.640625 -11.046875 L 10.640625 0 L 8.390625 0 L 3.078125 -7.21875 L 3.078125 0 L 0.734375 0 L 0.734375 -11.046875 L 2.9375 -11.046875 L 8.28125 -3.78125 Z M 8.28125 -11.046875 "/></g></g></g><g fill="#7c898b" fill-opacity="1"><g transform="translate(155.499885, 291.157306)"><g><path d="M 0.359375 -11.046875 L 8.34375 -11.046875 L 8.34375 -8.890625 L 5.53125 -8.890625 L 5.53125 0 L 3.171875 0 L 3.171875 -8.890625 L 0.359375 -8.890625 Z M 0.359375 -11.046875 "/></g></g></g><g fill="#7c898b" fill-opacity="1"><g transform="translate(168.914008, 291.157306)"><g/></g></g><g fill="#7c898b" fill-opacity="1"><g transform="translate(177.90507, 291.157306)"><g><path d="M 0.359375 -11.046875 L 8.34375 -11.046875 L 8.34375 -8.890625 L 5.53125 -8.890625 L 5.53125 0 L 3.171875 0 L 3.171875 -8.890625 L 0.359375 -8.890625 Z M 0.359375 -11.046875 "/></g></g></g><g fill="#7c898b" fill-opacity="1"><g transform="translate(191.319192, 291.157306)"><g><path d="M 8.671875 -7.765625 C 8.671875 -7.410156 8.617188 -7.070312 8.515625 -6.75 C 8.421875 -6.4375 8.285156 -6.144531 8.109375 -5.875 C 7.929688 -5.613281 7.71875 -5.378906 7.46875 -5.171875 C 7.226562 -4.972656 6.960938 -4.8125 6.671875 -4.6875 L 10.328125 0 L 7.578125 0 L 4.15625 -4.453125 L 3.09375 -4.453125 L 3.09375 0 L 0.734375 0 L 0.734375 -11.046875 L 5.5 -11.046875 C 5.9375 -11.046875 6.347656 -10.957031 6.734375 -10.78125 C 7.128906 -10.613281 7.46875 -10.378906 7.75 -10.078125 C 8.03125 -9.785156 8.253906 -9.4375 8.421875 -9.03125 C 8.585938 -8.632812 8.671875 -8.210938 8.671875 -7.765625 Z M 5.203125 -6.609375 C 5.503906 -6.609375 5.765625 -6.71875 5.984375 -6.9375 C 6.203125 -7.164062 6.3125 -7.441406 6.3125 -7.765625 C 6.3125 -8.066406 6.203125 -8.328125 5.984375 -8.546875 C 5.765625 -8.773438 5.503906 -8.890625 5.203125 -8.890625 L 3.09375 -8.890625 L 3.09375 -6.609375 Z M 5.203125 -6.609375 "/></g></g></g><g fill="#7c898b" fill-opacity="1"><g transform="translate(206.726807, 291.157306)"><g><path d="M 7.53125 -11.046875 L 12.140625 0 L 9.578125 0 L 8.578125 -2.375 L 3.890625 -2.375 L 2.90625 0 L 0.34375 0 L 4.953125 -11.046875 Z M 7.703125 -4.515625 L 6.25 -7.984375 L 4.796875 -4.515625 Z M 7.703125 -4.515625 "/></g></g></g><g fill="#7c898b" fill-opacity="1"><g transform="translate(223.909869, 291.157306)"><g><path d="M 5.9375 -2.15625 C 6.4375 -2.15625 6.921875 -2.265625 7.390625 -2.484375 C 7.867188 -2.710938 8.351562 -3.097656 8.84375 -3.640625 L 10.375 -2.203125 C 9.757812 -1.410156 9.0625 -0.8125 8.28125 -0.40625 C 7.5 0 6.691406 0.203125 5.859375 0.203125 C 5.109375 0.203125 4.40625 0.0507812 3.75 -0.25 C 3.09375 -0.5625 2.523438 -0.976562 2.046875 -1.5 C 1.566406 -2.019531 1.1875 -2.625 0.90625 -3.3125 C 0.632812 -4 0.5 -4.734375 0.5 -5.515625 C 0.5 -6.296875 0.640625 -7.023438 0.921875 -7.703125 C 1.210938 -8.390625 1.597656 -8.992188 2.078125 -9.515625 C 2.566406 -10.035156 3.144531 -10.445312 3.8125 -10.75 C 4.476562 -11.050781 5.1875 -11.203125 5.9375 -11.203125 C 6.632812 -11.203125 7.296875 -11.070312 7.921875 -10.8125 C 8.546875 -10.550781 9.160156 -10.117188 9.765625 -9.515625 L 8.390625 -7.84375 C 7.960938 -8.25 7.550781 -8.519531 7.15625 -8.65625 C 6.769531 -8.800781 6.363281 -8.875 5.9375 -8.875 C 5.507812 -8.875 5.101562 -8.785156 4.71875 -8.609375 C 4.34375 -8.429688 4.015625 -8.191406 3.734375 -7.890625 C 3.453125 -7.597656 3.226562 -7.242188 3.0625 -6.828125 C 2.90625 -6.421875 2.828125 -5.984375 2.828125 -5.515625 C 2.828125 -5.046875 2.90625 -4.609375 3.0625 -4.203125 C 3.226562 -3.796875 3.453125 -3.4375 3.734375 -3.125 C 4.015625 -2.820312 4.34375 -2.582031 4.71875 -2.40625 C 5.101562 -2.238281 5.507812 -2.15625 5.9375 -2.15625 Z M 5.9375 -2.15625 "/></g></g></g><g fill="#7c898b" fill-opacity="1"><g transform="translate(239.442076, 291.157306)"><g><path d="M 5.546875 -6 L 10.875 0 L 7.953125 0 L 4.046875 -4.5 L 3.09375 -3.53125 L 3.09375 0 L 0.734375 0 L 0.734375 -11.046875 L 3.09375 -11.046875 L 3.09375 -6.578125 L 7.546875 -11.046875 L 10.5625 -11.046875 Z M 5.546875 -6 "/></g></g></g><g fill="#7c898b" fill-opacity="1"><g transform="translate(255.239041, 291.157306)"><g><path d="M 0.75 -11.046875 L 7.65625 -11.046875 L 7.65625 -8.890625 L 3.109375 -8.890625 L 3.109375 -6.90625 L 7.109375 -6.90625 L 7.109375 -4.75 L 3.109375 -4.75 L 3.109375 -2.140625 L 7.65625 -2.140625 L 7.65625 0 L 0.75 0 Z M 0.75 -11.046875 "/></g></g></g><g fill="#7c898b" fill-opacity="1"><g transform="translate(268.341678, 291.157306)"><g><path d="M 8.671875 -7.765625 C 8.671875 -7.410156 8.617188 -7.070312 8.515625 -6.75 C 8.421875 -6.4375 8.285156 -6.144531 8.109375 -5.875 C 7.929688 -5.613281 7.71875 -5.378906 7.46875 -5.171875 C 7.226562 -4.972656 6.960938 -4.8125 6.671875 -4.6875 L 10.328125 0 L 7.578125 0 L 4.15625 -4.453125 L 3.09375 -4.453125 L 3.09375 0 L 0.734375 0 L 0.734375 -11.046875 L 5.5 -11.046875 C 5.9375 -11.046875 6.347656 -10.957031 6.734375 -10.78125 C 7.128906 -10.613281 7.46875 -10.378906 7.75 -10.078125 C 8.03125 -9.785156 8.253906 -9.4375 8.421875 -9.03125 C 8.585938 -8.632812 8.671875 -8.210938 8.671875 -7.765625 Z M 5.203125 -6.609375 C 5.503906 -6.609375 5.765625 -6.71875 5.984375 -6.9375 C 6.203125 -7.164062 6.3125 -7.441406 6.3125 -7.765625 C 6.3125 -8.066406 6.203125 -8.328125 5.984375 -8.546875 C 5.765625 -8.773438 5.503906 -8.890625 5.203125 -8.890625 L 3.09375 -8.890625 L 3.09375 -6.609375 Z M 5.203125 -6.609375 "/></g></g></g></svg>